# xmcd CD database file
#
# Track frame offsets:
#	150
#	17689
#	45517
#	83361
#	100765
#	116919
#	121027
#	143629
#	157526
#	178088
#	193040
#	207040
#	230115
#
# Disc length: 3194 seconds
#
# Revision: 0
# Processed by: cddbd v1.5.2PL0 Copyright (c) Steve Scherf et al.
# Submitted via: CDex 1.70beta2
#
DISCID=990c780d
DTITLE=Subhira Rodrigo Cepeda - Travesia
DYEAR=2000
DGENRE=New Age
TTITLE0=Licancabur
TTITLE1=Travesia
TTITLE2=Creencias Por Nada
TTITLE3=1999
TTITLE4=Carhuello
TTITLE5=Ad Patres
TTITLE6=Abuelo Miguel
TTITLE7=Caleuche
TTITLE8=Parinas
TTITLE9=Norte y Cal
TTITLE10=Marichiweu
TTITLE11=Cancion de Amor
TTITLE12=Suenos de Emai
EXTD=YEAR: 2000
EXTT0=
EXTT1=
EXTT2=
EXTT3=
EXTT4=
EXTT5=
EXTT6=
EXTT7=
EXTT8=
EXTT9=
EXTT10=
EXTT11=
EXTT12=
PLAYORDER=
